%
M48
M72
T01C0.0240
T02C0.0394
T03C0.0400
%
T01
X2280Y2380
X1780Y4280
X3380Y5680
X4680Y6480
X6580Y6680
X6980Y6980
X7980Y7580
X8880Y7580
X10280Y9280
X12180Y9380
X12980Y8580
X13380Y8880
X12780Y10280
X15480Y9680
X11980Y7080
X11080Y6180
X10980Y4880
X11580Y4780
X11580Y4080
X12980Y5180
X15080Y4280
X12580Y2280
X9580Y2780
X9180Y2380
X8680Y1180
X6680Y1180
X5680Y1180
X5180Y2580
X6680Y3880
X7080Y4180
X6080Y4780
X7680Y4980
X7880Y5780
X9580Y4380
X8180Y3580
X7580Y3180
X5180Y8380
X5580Y9180
X6780Y10080
X8280Y10080
X5180Y11480
T02
X17680Y4180
T03
X17680Y5180
X17680Y6180
X17680Y7180
X17680Y8180
X17680Y9180
X17180Y11680
X16180Y11680
X15180Y11680
X14180Y11680
X13180Y11680
X12180Y11680
X11180Y11680
X10180Y11680
X9180Y11680
X8180Y11680
X7180Y11680
X6180Y11680
X10180Y10180
X2680Y8680
X1680Y8680
X1680Y7680
X2680Y7680
X2680Y6680
X1680Y6680
X6180Y1680
X7180Y1680
X8180Y1680
X9180Y1680
X10180Y1680
X11180Y1680
X12180Y1680
X13180Y1680
X14180Y1680
X15180Y1680
X16180Y1680
X17180Y1680
M30
