G75*
G70*
%OFA0B0*%
%FSLAX24Y24*%
%IPPOS*%
%LPD*%
%AMOC8*
5,1,8,0,0,1.08239X$1,22.5*
%
%ADD10R,0.0552X0.0297*%
%ADD11R,0.0592X0.0671*%
%ADD12R,0.0946X0.1104*%
%ADD13R,0.0710X0.0592*%
%ADD14R,0.0395X0.0395*%
%ADD15R,0.0671X0.0592*%
%ADD16R,0.0237X0.0631*%
%ADD17R,0.0867X0.0828*%
%ADD18R,0.0946X0.0828*%
%ADD19R,0.0867X0.0592*%
%ADD20OC8,0.0820*%
%ADD21C,0.0820*%
%ADD22R,0.0674X0.0674*%
%ADD23C,0.0780*%
%ADD24OC8,0.0480*%
D10*
X015168Y004806D03*
X015168Y005554D03*
X016192Y005554D03*
X016192Y005180D03*
X016192Y004806D03*
X016192Y007806D03*
X016192Y008180D03*
X016192Y008554D03*
X015168Y008554D03*
X015168Y007806D03*
D11*
X015306Y006680D03*
X016054Y006680D03*
X016054Y003680D03*
X015306Y003680D03*
X013554Y009680D03*
X012806Y009680D03*
D12*
X012180Y008164D03*
X012180Y006196D03*
D13*
X013680Y007306D03*
X013680Y008054D03*
X012180Y004554D03*
X012180Y003806D03*
D14*
X013680Y005885D03*
X013680Y006475D03*
D15*
X013680Y004554D03*
X013680Y003806D03*
D16*
X003192Y010558D03*
X002936Y010558D03*
X002680Y010558D03*
X002424Y010558D03*
X002168Y010558D03*
D17*
X002188Y011680D03*
X003172Y011680D03*
D18*
X004255Y011680D03*
X001105Y011680D03*
D19*
X004030Y008436D03*
X004030Y007649D03*
X004030Y006861D03*
X004030Y006074D03*
X004030Y005286D03*
X004030Y004499D03*
X004030Y003711D03*
X004030Y002924D03*
X010330Y002924D03*
X010330Y003711D03*
X010330Y004499D03*
X010330Y005286D03*
X010330Y006074D03*
X010330Y006861D03*
X010330Y007649D03*
X010330Y008436D03*
D20*
X002680Y008680D03*
X001680Y008680D03*
X001680Y007680D03*
X002680Y007680D03*
X002680Y006680D03*
X001680Y006680D03*
D21*
X006180Y001680D03*
X007180Y001680D03*
X008180Y001680D03*
X009180Y001680D03*
X010180Y001680D03*
X011180Y001680D03*
X012180Y001680D03*
X013180Y001680D03*
X014180Y001680D03*
X015180Y001680D03*
X016180Y001680D03*
X017180Y001680D03*
X010180Y010180D03*
X010180Y011680D03*
X009180Y011680D03*
X008180Y011680D03*
X007180Y011680D03*
X006180Y011680D03*
X011180Y011680D03*
X012180Y011680D03*
X013180Y011680D03*
X014180Y011680D03*
X015180Y011680D03*
X016180Y011680D03*
X017180Y011680D03*
D22*
X017680Y004180D03*
D23*
X017680Y005180D03*
X017680Y006180D03*
X017680Y007180D03*
X017680Y008180D03*
X017680Y009180D03*
D24*
X002280Y002380D03*
X001780Y004280D03*
X003380Y005680D03*
X004680Y006480D03*
X006580Y006680D03*
X006980Y006980D03*
X007980Y007580D03*
X008880Y007580D03*
X010280Y009280D03*
X012180Y009380D03*
X012980Y008580D03*
X013380Y008880D03*
X012780Y010280D03*
X015480Y009680D03*
X011980Y007080D03*
X011080Y006180D03*
X010980Y004880D03*
X011580Y004780D03*
X011580Y004080D03*
X012980Y005180D03*
X015080Y004280D03*
X012580Y002280D03*
X009580Y002780D03*
X009180Y002380D03*
X008680Y001180D03*
X006680Y001180D03*
X005680Y001180D03*
X005180Y002580D03*
X006680Y003880D03*
X007080Y004180D03*
X006080Y004780D03*
X007680Y004980D03*
X007880Y005780D03*
X009580Y004380D03*
X008180Y003580D03*
X007580Y003180D03*
X005180Y008380D03*
X005580Y009180D03*
X006780Y010080D03*
X008280Y010080D03*
X005180Y011480D03*
M02*
