G75*
G70*
%OFA0B0*%
%FSLAX24Y24*%
%IPPOS*%
%LPD*%
%AMOC8*
5,1,8,0,0,1.08239X$1,22.5*
%
%ADD10C,0.0040*%
%ADD11C,0.0010*%
%ADD12C,0.0020*%
%ADD13C,0.0080*%
%ADD14C,0.0060*%
%ADD15C,0.0050*%
%ADD16C,0.0100*%
%ADD17R,0.0118X0.0059*%
%ADD18R,0.0118X0.0118*%
D10*
X005900Y002300D02*
X005900Y002530D01*
X005976Y002607D01*
X006283Y002607D01*
X006360Y002530D01*
X006360Y002300D01*
X005900Y002300D01*
X006053Y002760D02*
X005900Y002914D01*
X006360Y002914D01*
X006360Y003067D02*
X006360Y002760D01*
X006283Y003221D02*
X005976Y003221D01*
X005900Y003298D01*
X005900Y003451D01*
X005976Y003528D01*
X006283Y003221D01*
X006360Y003298D01*
X006360Y003451D01*
X006283Y003528D01*
X005976Y003528D01*
X006900Y003374D02*
X007360Y003374D01*
X007360Y003221D02*
X007360Y003528D01*
X007900Y003451D02*
X007900Y003298D01*
X007976Y003221D01*
X007900Y003451D02*
X007976Y003528D01*
X008053Y003528D01*
X008360Y003221D01*
X008360Y003528D01*
X008900Y003451D02*
X008900Y003298D01*
X008976Y003221D01*
X009283Y003221D02*
X009360Y003298D01*
X009360Y003451D01*
X009283Y003528D01*
X009207Y003528D01*
X009130Y003451D01*
X009130Y003374D01*
X009130Y003451D02*
X009053Y003528D01*
X008976Y003528D01*
X008900Y003451D01*
X009360Y003067D02*
X009360Y002760D01*
X009360Y002914D02*
X008900Y002914D01*
X009053Y002760D01*
X008976Y002607D02*
X008900Y002530D01*
X008900Y002300D01*
X009360Y002300D01*
X009360Y002530D01*
X009283Y002607D01*
X008976Y002607D01*
X008360Y002530D02*
X008360Y002300D01*
X007900Y002300D01*
X007900Y002530D01*
X007976Y002607D01*
X008283Y002607D01*
X008360Y002530D01*
X008360Y002760D02*
X008360Y003067D01*
X008360Y002914D02*
X007900Y002914D01*
X008053Y002760D01*
X007360Y002760D02*
X007360Y003067D01*
X007360Y002914D02*
X006900Y002914D01*
X007053Y002760D01*
X006976Y002607D02*
X006900Y002530D01*
X006900Y002300D01*
X007360Y002300D01*
X007360Y002530D01*
X007283Y002607D01*
X006976Y002607D01*
X007053Y003221D02*
X006900Y003374D01*
X009900Y002991D02*
X009900Y002837D01*
X009976Y002760D01*
X010283Y002760D01*
X009976Y003067D01*
X010283Y003067D01*
X010360Y002991D01*
X010360Y002837D01*
X010283Y002760D01*
X010360Y002607D02*
X010053Y002607D01*
X009900Y002453D01*
X010053Y002300D01*
X010360Y002300D01*
X010130Y002300D02*
X010130Y002607D01*
X009900Y002991D02*
X009976Y003067D01*
X010900Y002914D02*
X011360Y002914D01*
X011360Y003067D02*
X011360Y002760D01*
X011360Y002607D02*
X011053Y002607D01*
X010900Y002453D01*
X011053Y002300D01*
X011360Y002300D01*
X011130Y002300D02*
X011130Y002607D01*
X011053Y002760D02*
X010900Y002914D01*
X011900Y002991D02*
X011900Y002837D01*
X011976Y002760D01*
X012053Y002607D02*
X012360Y002607D01*
X012360Y002760D02*
X012053Y003067D01*
X011976Y003067D01*
X011900Y002991D01*
X012360Y003067D02*
X012360Y002760D01*
X012130Y002607D02*
X012130Y002300D01*
X012053Y002300D02*
X011900Y002453D01*
X012053Y002607D01*
X012053Y002300D02*
X012360Y002300D01*
X012900Y002453D02*
X013053Y002607D01*
X013360Y002607D01*
X013283Y002760D02*
X013360Y002837D01*
X013360Y002991D01*
X013283Y003067D01*
X013207Y003067D01*
X013130Y002991D01*
X013130Y002914D01*
X013130Y002991D02*
X013053Y003067D01*
X012976Y003067D01*
X012900Y002991D01*
X012900Y002837D01*
X012976Y002760D01*
X013130Y002607D02*
X013130Y002300D01*
X013053Y002300D02*
X012900Y002453D01*
X013053Y002300D02*
X013360Y002300D01*
X013900Y002377D02*
X013900Y002530D01*
X013976Y002607D01*
X014053Y002607D01*
X014130Y002530D01*
X014207Y002607D01*
X014283Y002607D01*
X014360Y002530D01*
X014360Y002377D01*
X014283Y002300D01*
X014130Y002453D02*
X014130Y002530D01*
X014207Y002760D02*
X013900Y002760D01*
X014207Y002760D02*
X014360Y002914D01*
X014207Y003067D01*
X013900Y003067D01*
X013976Y003221D02*
X013900Y003298D01*
X013900Y003451D01*
X013976Y003528D01*
X014053Y003528D01*
X014130Y003451D01*
X014207Y003528D01*
X014283Y003528D01*
X014360Y003451D01*
X014360Y003298D01*
X014283Y003221D01*
X014130Y003374D02*
X014130Y003451D01*
X015000Y003528D02*
X015000Y003221D01*
X015076Y003067D02*
X015000Y002991D01*
X015000Y002837D01*
X015076Y002760D01*
X015153Y002760D01*
X015230Y002837D01*
X015230Y002991D01*
X015307Y003067D01*
X015383Y003067D01*
X015460Y002991D01*
X015460Y002837D01*
X015383Y002760D01*
X015460Y002607D02*
X015307Y002453D01*
X015307Y002530D02*
X015230Y002607D01*
X015076Y002607D01*
X015000Y002530D01*
X015000Y002300D01*
X015460Y002300D01*
X015307Y002300D02*
X015307Y002530D01*
X016000Y002530D02*
X016000Y002377D01*
X016076Y002300D01*
X016383Y002300D01*
X016460Y002377D01*
X016460Y002530D01*
X016383Y002607D01*
X016230Y002607D01*
X016230Y002453D01*
X016076Y002607D02*
X016000Y002530D01*
X016000Y002760D02*
X016460Y003067D01*
X016000Y003067D01*
X016000Y003221D02*
X016000Y003451D01*
X016076Y003528D01*
X016383Y003528D01*
X016460Y003451D01*
X016460Y003221D01*
X016000Y003221D01*
X016000Y002760D02*
X016460Y002760D01*
X017100Y002860D02*
X017100Y002400D01*
X017330Y002400D01*
X017407Y002477D01*
X017407Y002553D01*
X017330Y002630D01*
X017100Y002630D01*
X017330Y002630D02*
X017407Y002707D01*
X017407Y002784D01*
X017330Y002860D01*
X017100Y002860D01*
X017560Y002707D02*
X017714Y002860D01*
X017867Y002707D01*
X017867Y002400D01*
X017867Y002630D02*
X017560Y002630D01*
X017560Y002707D02*
X017560Y002400D01*
X018174Y002400D02*
X018174Y002860D01*
X018021Y002860D02*
X018328Y002860D01*
X018481Y002860D02*
X018788Y002860D01*
X018635Y002860D02*
X018635Y002400D01*
X015460Y003374D02*
X015000Y003374D01*
X013976Y002300D02*
X013900Y002377D01*
X010674Y009000D02*
X010674Y009460D01*
X010521Y009460D02*
X010828Y009460D01*
X010367Y009460D02*
X010367Y009000D01*
X010060Y009460D01*
X010060Y009000D01*
X009907Y009000D02*
X009907Y009307D01*
X009753Y009460D01*
X009600Y009307D01*
X009600Y009000D01*
X009600Y009230D02*
X009907Y009230D01*
X009360Y010200D02*
X008900Y010200D01*
X008900Y010430D01*
X008976Y010507D01*
X009283Y010507D01*
X009360Y010430D01*
X009360Y010200D01*
X009283Y010660D02*
X009360Y010737D01*
X009360Y010891D01*
X009283Y010967D01*
X009207Y010967D01*
X009130Y010891D01*
X009130Y010660D01*
X009283Y010660D01*
X009130Y010660D02*
X008976Y010814D01*
X008900Y010967D01*
X008360Y010660D02*
X008283Y010660D01*
X007976Y010967D01*
X007900Y010967D01*
X007900Y010660D01*
X007976Y010507D02*
X007900Y010430D01*
X007900Y010200D01*
X008360Y010200D01*
X008360Y010430D01*
X008283Y010507D01*
X007976Y010507D01*
X007360Y010430D02*
X007360Y010200D01*
X006900Y010200D01*
X006900Y010430D01*
X006976Y010507D01*
X007283Y010507D01*
X007360Y010430D01*
X007283Y010660D02*
X007207Y010660D01*
X007130Y010737D01*
X007130Y010891D01*
X007207Y010967D01*
X007283Y010967D01*
X007360Y010891D01*
X007360Y010737D01*
X007283Y010660D01*
X007130Y010737D02*
X007053Y010660D01*
X006976Y010660D01*
X006900Y010737D01*
X006900Y010891D01*
X006976Y010967D01*
X007053Y010967D01*
X007130Y010891D01*
X006360Y010891D02*
X006360Y010737D01*
X006283Y010660D01*
X006283Y010507D02*
X005976Y010507D01*
X005900Y010430D01*
X005900Y010200D01*
X006360Y010200D01*
X006360Y010430D01*
X006283Y010507D01*
X006053Y010660D02*
X006130Y010737D01*
X006130Y010967D01*
X006283Y010967D02*
X006360Y010891D01*
X006283Y010967D02*
X005976Y010967D01*
X005900Y010891D01*
X005900Y010737D01*
X005976Y010660D01*
X006053Y010660D01*
X010900Y010430D02*
X010900Y010200D01*
X011360Y010200D01*
X011360Y010430D01*
X011283Y010507D01*
X010976Y010507D01*
X010900Y010430D01*
X011130Y010660D02*
X011130Y010967D01*
X011360Y010891D02*
X010900Y010891D01*
X011130Y010660D01*
X011900Y010737D02*
X011976Y010660D01*
X011900Y010737D02*
X011900Y010891D01*
X011976Y010967D01*
X012053Y010967D01*
X012130Y010891D01*
X012207Y010967D01*
X012283Y010967D01*
X012360Y010891D01*
X012360Y010737D01*
X012283Y010660D01*
X012283Y010507D02*
X011976Y010507D01*
X011900Y010430D01*
X011900Y010200D01*
X012360Y010200D01*
X012360Y010430D01*
X012283Y010507D01*
X012130Y010814D02*
X012130Y010891D01*
X012900Y010891D02*
X012900Y010737D01*
X012976Y010660D01*
X012976Y010507D02*
X012900Y010430D01*
X012900Y010200D01*
X013360Y010200D01*
X013360Y010430D01*
X013283Y010507D01*
X012976Y010507D01*
X013360Y010660D02*
X013053Y010967D01*
X012976Y010967D01*
X012900Y010891D01*
X013360Y010967D02*
X013360Y010660D01*
X013900Y010621D02*
X013900Y010851D01*
X013976Y010928D01*
X014283Y010928D01*
X014360Y010851D01*
X014360Y010621D01*
X013900Y010621D01*
X013900Y010467D02*
X014360Y010467D01*
X013900Y010160D01*
X014360Y010160D01*
X014283Y010007D02*
X014130Y010007D01*
X014130Y009853D01*
X014283Y009700D02*
X013976Y009700D01*
X013900Y009777D01*
X013900Y009930D01*
X013976Y010007D01*
X014283Y010007D02*
X014360Y009930D01*
X014360Y009777D01*
X014283Y009700D01*
X014900Y009700D02*
X014900Y009930D01*
X014976Y010007D01*
X015130Y010007D01*
X015207Y009930D01*
X015207Y009700D01*
X015360Y009700D02*
X014900Y009700D01*
X015207Y009853D02*
X015360Y010007D01*
X015283Y010160D02*
X015360Y010237D01*
X015360Y010391D01*
X015283Y010467D01*
X015207Y010467D01*
X015130Y010391D01*
X015130Y010237D01*
X015053Y010160D01*
X014976Y010160D01*
X014900Y010237D01*
X014900Y010391D01*
X014976Y010467D01*
X014900Y010621D02*
X014900Y010928D01*
X014900Y010774D02*
X015360Y010774D01*
X015800Y010653D02*
X016030Y010653D01*
X016107Y010730D01*
X016107Y010884D01*
X016030Y010960D01*
X015800Y010960D01*
X015800Y010500D01*
X015953Y010653D02*
X016107Y010500D01*
X016260Y010500D02*
X016567Y010960D01*
X016800Y010960D02*
X017107Y010960D01*
X017260Y010960D02*
X017567Y010500D01*
X017260Y010500D02*
X017567Y010960D01*
X016953Y010960D02*
X016953Y010500D01*
X016567Y010500D02*
X016260Y010960D01*
D11*
X015125Y009027D02*
X015125Y008927D01*
X015275Y008927D01*
X015250Y008880D02*
X015275Y008855D01*
X015275Y008780D01*
X015275Y008732D02*
X015275Y008632D01*
X015175Y008732D01*
X015150Y008732D01*
X015125Y008707D01*
X015125Y008657D01*
X015150Y008632D01*
X015150Y008585D02*
X015125Y008560D01*
X015125Y008510D01*
X015150Y008485D01*
X015150Y008585D02*
X015175Y008585D01*
X015275Y008485D01*
X015275Y008585D01*
X015325Y008780D02*
X015175Y008780D01*
X015175Y008855D01*
X015200Y008880D01*
X015250Y008880D01*
X015200Y008927D02*
X015200Y008977D01*
X014327Y007735D02*
X014327Y007585D01*
X014374Y007585D02*
X014474Y007585D01*
X014474Y007685D02*
X014374Y007585D01*
X014327Y007660D02*
X014227Y007660D01*
X014227Y007585D02*
X014227Y007735D01*
X014180Y007735D02*
X014180Y007585D01*
X014080Y007585D02*
X014080Y007735D01*
X014130Y007685D01*
X014180Y007735D01*
X014032Y007735D02*
X013982Y007710D01*
X013932Y007660D01*
X014007Y007660D01*
X014032Y007635D01*
X014032Y007610D01*
X014007Y007585D01*
X013957Y007585D01*
X013932Y007610D01*
X013932Y007660D01*
X013885Y007585D02*
X013785Y007585D01*
X013835Y007585D02*
X013835Y007735D01*
X013785Y007685D01*
X014374Y007685D02*
X014474Y007685D01*
X015125Y007027D02*
X015125Y006927D01*
X015275Y006927D01*
X015250Y006880D02*
X015275Y006855D01*
X015275Y006780D01*
X015275Y006732D02*
X015275Y006632D01*
X015175Y006732D01*
X015150Y006732D01*
X015125Y006707D01*
X015125Y006657D01*
X015150Y006632D01*
X015150Y006585D02*
X015125Y006560D01*
X015125Y006510D01*
X015150Y006485D01*
X015150Y006585D02*
X015175Y006585D01*
X015275Y006485D01*
X015275Y006585D01*
X015325Y006780D02*
X015175Y006780D01*
X015175Y006855D01*
X015200Y006880D01*
X015250Y006880D01*
X015200Y006927D02*
X015200Y006977D01*
X013775Y005355D02*
X013725Y005280D01*
X013675Y005355D01*
X013625Y005280D02*
X013775Y005280D01*
X013750Y005232D02*
X013775Y005207D01*
X013775Y005157D01*
X013750Y005132D01*
X013650Y005232D01*
X013750Y005232D01*
X013750Y005132D02*
X013650Y005132D01*
X013625Y005157D01*
X013625Y005207D01*
X013650Y005232D01*
X013775Y005085D02*
X013775Y004985D01*
X013775Y005035D02*
X013625Y005035D01*
X013675Y004985D01*
X015125Y005001D02*
X015125Y004901D01*
X015275Y004901D01*
X015275Y004853D02*
X015175Y004853D01*
X015200Y004901D02*
X015200Y004951D01*
X015275Y004853D02*
X015275Y004778D01*
X015250Y004753D01*
X015175Y004753D01*
X015125Y004656D02*
X015275Y004656D01*
X015275Y004606D02*
X015275Y004706D01*
X015175Y004606D02*
X015125Y004656D01*
X015250Y004557D02*
X015275Y004557D01*
X015275Y004532D01*
X015250Y004532D01*
X015250Y004557D01*
X015250Y004485D02*
X015275Y004460D01*
X015275Y004410D01*
X015250Y004385D01*
X015150Y004485D01*
X015250Y004485D01*
X015250Y004385D02*
X015150Y004385D01*
X015125Y004410D01*
X015125Y004460D01*
X015150Y004485D01*
X006001Y003735D02*
X005901Y003735D01*
X005901Y003585D01*
X005853Y003585D02*
X005853Y003685D01*
X005901Y003660D02*
X005951Y003660D01*
X005853Y003585D02*
X005778Y003585D01*
X005753Y003610D01*
X005753Y003685D01*
X005656Y003735D02*
X005656Y003585D01*
X005606Y003585D02*
X005706Y003585D01*
X005606Y003685D02*
X005656Y003735D01*
X005557Y003610D02*
X005557Y003585D01*
X005532Y003585D01*
X005532Y003610D01*
X005557Y003610D01*
X005485Y003610D02*
X005460Y003585D01*
X005410Y003585D01*
X005385Y003610D01*
X005485Y003710D01*
X005485Y003610D01*
X005385Y003610D02*
X005385Y003710D01*
X005410Y003735D01*
X005460Y003735D01*
X005485Y003710D01*
X005460Y004585D02*
X005410Y004585D01*
X005385Y004610D01*
X005435Y004660D02*
X005460Y004660D01*
X005485Y004635D01*
X005485Y004610D01*
X005460Y004585D01*
X005460Y004660D02*
X005485Y004685D01*
X005485Y004710D01*
X005460Y004735D01*
X005410Y004735D01*
X005385Y004710D01*
X005532Y004710D02*
X005557Y004735D01*
X005607Y004735D01*
X005632Y004710D01*
X005632Y004685D01*
X005607Y004660D01*
X005632Y004635D01*
X005632Y004610D01*
X005607Y004585D01*
X005557Y004585D01*
X005532Y004610D01*
X005582Y004660D02*
X005607Y004660D01*
X005680Y004610D02*
X005780Y004710D01*
X005780Y004610D01*
X005755Y004585D01*
X005705Y004585D01*
X005680Y004610D01*
X005680Y004710D01*
X005705Y004735D01*
X005755Y004735D01*
X005780Y004710D01*
X005727Y005385D02*
X005627Y005385D01*
X005677Y005385D02*
X005677Y005535D01*
X005627Y005485D01*
X005580Y005510D02*
X005580Y005410D01*
X005555Y005385D01*
X005480Y005385D01*
X005480Y005535D01*
X005555Y005535D01*
X005580Y005510D01*
X005432Y005535D02*
X005332Y005535D01*
X005332Y005385D01*
X005432Y005385D01*
X005382Y005460D02*
X005332Y005460D01*
X005285Y005385D02*
X005185Y005385D01*
X005185Y005535D01*
D12*
X003570Y006427D02*
X003570Y006500D01*
X003533Y006537D01*
X003460Y006537D01*
X003460Y006463D01*
X003387Y006390D02*
X003533Y006390D01*
X003570Y006427D01*
X003387Y006390D02*
X003350Y006427D01*
X003350Y006500D01*
X003387Y006537D01*
X003350Y006611D02*
X003570Y006758D01*
X003350Y006758D01*
X003350Y006832D02*
X003350Y006942D01*
X003387Y006979D01*
X003533Y006979D01*
X003570Y006942D01*
X003570Y006832D01*
X003350Y006832D01*
X003350Y006611D02*
X003570Y006611D01*
X003570Y007290D02*
X003350Y007290D01*
X003423Y007363D01*
X003350Y007437D01*
X003570Y007437D01*
X003533Y007511D02*
X003570Y007548D01*
X003570Y007621D01*
X003533Y007658D01*
X003387Y007658D01*
X003350Y007621D01*
X003350Y007548D01*
X003387Y007511D01*
X003533Y007511D01*
X003533Y007732D02*
X003570Y007769D01*
X003570Y007842D01*
X003533Y007879D01*
X003497Y007879D01*
X003460Y007842D01*
X003460Y007769D01*
X003423Y007732D01*
X003387Y007732D01*
X003350Y007769D01*
X003350Y007842D01*
X003387Y007879D01*
X003350Y007953D02*
X003350Y008026D01*
X003350Y007990D02*
X003570Y007990D01*
X003570Y008026D02*
X003570Y007953D01*
X003460Y008390D02*
X003460Y008537D01*
X003460Y008611D02*
X003423Y008684D01*
X003423Y008721D01*
X003460Y008758D01*
X003533Y008758D01*
X003570Y008721D01*
X003570Y008648D01*
X003533Y008611D01*
X003460Y008611D02*
X003350Y008611D01*
X003350Y008758D01*
X003350Y008832D02*
X003497Y008832D01*
X003570Y008905D01*
X003497Y008979D01*
X003350Y008979D01*
X003387Y008463D02*
X003533Y008463D01*
X000870Y008390D02*
X000650Y008390D01*
X000723Y008463D01*
X000650Y008537D01*
X000870Y008537D01*
X000870Y008611D02*
X000870Y008684D01*
X000870Y008648D02*
X000650Y008648D01*
X000650Y008684D02*
X000650Y008611D01*
X000687Y008758D02*
X000723Y008758D01*
X000760Y008795D01*
X000760Y008868D01*
X000797Y008905D01*
X000833Y008905D01*
X000870Y008868D01*
X000870Y008795D01*
X000833Y008758D01*
X000687Y008758D02*
X000650Y008795D01*
X000650Y008868D01*
X000687Y008905D01*
X000687Y008979D02*
X000833Y008979D01*
X000870Y009016D01*
X000870Y009089D01*
X000833Y009126D01*
X000687Y009126D01*
X000650Y009089D01*
X000650Y009016D01*
X000687Y008979D01*
X000650Y007979D02*
X000797Y007832D01*
X000760Y007869D02*
X000870Y007979D01*
X000870Y007832D02*
X000650Y007832D01*
X000687Y007758D02*
X000650Y007721D01*
X000650Y007648D01*
X000687Y007611D01*
X000833Y007611D01*
X000870Y007648D01*
X000870Y007721D01*
X000833Y007758D01*
X000833Y007537D02*
X000870Y007500D01*
X000870Y007427D01*
X000833Y007390D01*
X000760Y007427D02*
X000760Y007500D01*
X000797Y007537D01*
X000833Y007537D01*
X000760Y007427D02*
X000723Y007390D01*
X000687Y007390D01*
X000650Y007427D01*
X000650Y007500D01*
X000687Y007537D01*
X000650Y007121D02*
X000650Y006974D01*
X000650Y007047D02*
X000870Y007047D01*
X000870Y006900D02*
X000870Y006753D01*
X000650Y006753D01*
X000650Y006900D01*
X000760Y006826D02*
X000760Y006753D01*
X000797Y006679D02*
X000760Y006642D01*
X000760Y006569D01*
X000723Y006532D01*
X000687Y006532D01*
X000650Y006569D01*
X000650Y006642D01*
X000687Y006679D01*
X000797Y006679D02*
X000833Y006679D01*
X000870Y006642D01*
X000870Y006569D01*
X000833Y006532D01*
X000870Y006458D02*
X000870Y006311D01*
X000650Y006311D01*
X000650Y006458D01*
X000760Y006384D02*
X000760Y006311D01*
X000760Y006237D02*
X000797Y006200D01*
X000797Y006090D01*
X000870Y006090D02*
X000650Y006090D01*
X000650Y006200D01*
X000687Y006237D01*
X000760Y006237D01*
X000797Y006163D02*
X000870Y006237D01*
D13*
X001893Y000999D02*
X003467Y000999D01*
X004255Y002574D02*
X004255Y003952D01*
X003940Y003952D01*
X003940Y002967D01*
X003467Y002967D01*
X001893Y002967D02*
X001420Y002967D01*
X001420Y003952D01*
X001105Y003952D01*
X001105Y002574D01*
X005680Y001930D02*
X005680Y001430D01*
X005930Y001180D01*
X006430Y001180D01*
X006680Y001430D01*
X006930Y001180D01*
X007430Y001180D01*
X007680Y001430D01*
X007930Y001180D01*
X008430Y001180D01*
X008680Y001430D01*
X008930Y001180D01*
X009430Y001180D01*
X009680Y001430D01*
X009930Y001180D01*
X010430Y001180D01*
X010680Y001430D01*
X010930Y001180D01*
X011430Y001180D01*
X011680Y001430D01*
X011930Y001180D01*
X012430Y001180D01*
X012680Y001430D01*
X012930Y001180D01*
X013430Y001180D01*
X013680Y001430D01*
X013930Y001180D01*
X014430Y001180D01*
X014680Y001430D01*
X014930Y001180D01*
X015430Y001180D01*
X015680Y001430D01*
X015930Y001180D01*
X016430Y001180D01*
X016680Y001430D01*
X016930Y001180D01*
X017430Y001180D01*
X017680Y001430D01*
X017680Y001930D01*
X017430Y002180D01*
X016930Y002180D01*
X016680Y001930D01*
X016430Y002180D01*
X015930Y002180D01*
X015680Y001930D01*
X015430Y002180D01*
X014930Y002180D01*
X014680Y001930D01*
X014430Y002180D01*
X013930Y002180D01*
X013680Y001930D01*
X013430Y002180D01*
X012930Y002180D01*
X012680Y001930D01*
X012430Y002180D01*
X011930Y002180D01*
X011680Y001930D01*
X011430Y002180D01*
X010930Y002180D01*
X010680Y001930D01*
X010430Y002180D01*
X009930Y002180D01*
X009680Y001930D01*
X009430Y002180D01*
X008930Y002180D01*
X008680Y001930D01*
X008430Y002180D01*
X007930Y002180D01*
X007680Y001930D01*
X007430Y002180D01*
X006930Y002180D01*
X006680Y001930D01*
X006430Y002180D01*
X005930Y002180D01*
X005680Y001930D01*
X002930Y006180D02*
X001430Y006180D01*
X001180Y006430D01*
X001180Y006930D01*
X001430Y007180D01*
X002930Y007180D01*
X003180Y006930D01*
X003180Y006430D01*
X002930Y006180D01*
X002930Y007180D02*
X003180Y007430D01*
X003180Y007930D01*
X002930Y008180D01*
X001430Y008180D01*
X001180Y007930D01*
X001180Y007430D01*
X001430Y007180D01*
X001430Y008180D02*
X001180Y008430D01*
X001180Y008930D01*
X001430Y009180D01*
X002930Y009180D01*
X003180Y008930D01*
X003180Y008430D01*
X002930Y008180D01*
X001048Y008430D02*
X001048Y008930D01*
X005680Y011430D02*
X005930Y011180D01*
X006430Y011180D01*
X006680Y011430D01*
X006930Y011180D01*
X007430Y011180D01*
X007680Y011430D01*
X007930Y011180D01*
X008430Y011180D01*
X008680Y011430D01*
X008930Y011180D01*
X009430Y011180D01*
X009680Y011430D01*
X009930Y011180D01*
X010430Y011180D01*
X010680Y011430D01*
X010930Y011180D01*
X011430Y011180D01*
X011680Y011430D01*
X011930Y011180D01*
X012430Y011180D01*
X012680Y011430D01*
X012930Y011180D01*
X013430Y011180D01*
X013680Y011430D01*
X013930Y011180D01*
X014430Y011180D01*
X014680Y011430D01*
X014930Y011180D01*
X015430Y011180D01*
X015680Y011430D01*
X015930Y011180D01*
X016430Y011180D01*
X016680Y011430D01*
X016930Y011180D01*
X017430Y011180D01*
X017680Y011430D01*
X017680Y011930D01*
X017430Y012180D01*
X016930Y012180D01*
X016680Y011930D01*
X016430Y012180D01*
X015930Y012180D01*
X015680Y011930D01*
X015430Y012180D01*
X014930Y012180D01*
X014680Y011930D01*
X014430Y012180D01*
X013930Y012180D01*
X013680Y011930D01*
X013430Y012180D01*
X012930Y012180D01*
X012680Y011930D01*
X012430Y012180D01*
X011930Y012180D01*
X011680Y011930D01*
X011430Y012180D01*
X010930Y012180D01*
X010680Y011930D01*
X010430Y012180D01*
X009930Y012180D01*
X009680Y011930D01*
X009430Y012180D01*
X008930Y012180D01*
X008680Y011930D01*
X008430Y012180D01*
X007930Y012180D01*
X007680Y011930D01*
X007430Y012180D01*
X006930Y012180D01*
X006680Y011930D01*
X006430Y012180D01*
X005930Y012180D01*
X005680Y011930D01*
X005680Y011430D01*
X009680Y010430D02*
X009680Y009930D01*
X009930Y009680D01*
X010430Y009680D01*
X010680Y009930D01*
X010680Y010430D01*
X010430Y010680D01*
X009930Y010680D01*
X009680Y010430D01*
X016689Y010240D02*
X016689Y009820D01*
X016899Y009820D01*
X016969Y009890D01*
X016969Y009960D01*
X016899Y010030D01*
X016689Y010030D01*
X016899Y010030D02*
X016969Y010100D01*
X016969Y010170D01*
X016899Y010240D01*
X016689Y010240D01*
X017149Y010240D02*
X017149Y009820D01*
X017429Y009820D01*
X017610Y009820D02*
X017610Y010240D01*
X017680Y010030D02*
X017890Y009820D01*
X017610Y009960D02*
X017890Y010240D01*
X017890Y003540D02*
X017890Y003120D01*
X017610Y003540D01*
X017610Y003120D01*
X017429Y003120D02*
X017289Y003260D01*
X017359Y003260D02*
X017149Y003260D01*
X017149Y003120D02*
X017149Y003540D01*
X017359Y003540D01*
X017429Y003470D01*
X017429Y003330D01*
X017359Y003260D01*
X016969Y003190D02*
X016969Y003330D01*
X016829Y003330D01*
X016969Y003190D02*
X016899Y003120D01*
X016759Y003120D01*
X016689Y003190D01*
X016689Y003470D01*
X016759Y003540D01*
X016899Y003540D01*
X016969Y003470D01*
D14*
X009533Y007081D02*
X009533Y007279D01*
X007680Y009132D01*
X005728Y007180D01*
X007680Y005228D01*
X009533Y007081D01*
X009066Y007180D02*
X009068Y007203D01*
X009074Y007226D01*
X009083Y007247D01*
X009096Y007267D01*
X009112Y007284D01*
X009130Y007298D01*
X009150Y007309D01*
X009172Y007317D01*
X009195Y007321D01*
X009219Y007321D01*
X009242Y007317D01*
X009264Y007309D01*
X009284Y007298D01*
X009302Y007284D01*
X009318Y007267D01*
X009331Y007247D01*
X009340Y007226D01*
X009346Y007203D01*
X009348Y007180D01*
X009346Y007157D01*
X009340Y007134D01*
X009331Y007113D01*
X009318Y007093D01*
X009302Y007076D01*
X009284Y007062D01*
X009264Y007051D01*
X009242Y007043D01*
X009219Y007039D01*
X009195Y007039D01*
X009172Y007043D01*
X009150Y007051D01*
X009130Y007062D01*
X009112Y007076D01*
X009096Y007093D01*
X009083Y007113D01*
X009074Y007134D01*
X009068Y007157D01*
X009066Y007180D01*
D15*
X013550Y006656D02*
X013550Y008704D01*
X014810Y008704D02*
X014810Y006656D01*
X016785Y006805D02*
X016965Y006805D01*
X017055Y006895D01*
X016965Y006985D01*
X016785Y006985D01*
X016830Y007100D02*
X017010Y007100D01*
X017055Y007145D01*
X017055Y007235D01*
X017010Y007280D01*
X017010Y007394D02*
X016830Y007394D01*
X016785Y007439D01*
X016785Y007529D01*
X016830Y007574D01*
X017010Y007574D02*
X017055Y007529D01*
X017055Y007439D01*
X017010Y007394D01*
X016830Y007280D02*
X016785Y007235D01*
X016785Y007145D01*
X016830Y007100D01*
X016785Y006484D02*
X016785Y006394D01*
X016785Y006439D02*
X017055Y006439D01*
X017055Y006394D02*
X017055Y006484D01*
X017055Y006280D02*
X016785Y006100D01*
X016830Y005985D02*
X016920Y005985D01*
X016965Y005940D01*
X016965Y005805D01*
X017055Y005805D02*
X016785Y005805D01*
X016785Y005940D01*
X016830Y005985D01*
X016965Y005895D02*
X017055Y005985D01*
X017055Y006100D02*
X016785Y006280D01*
X016830Y005574D02*
X016785Y005529D01*
X016785Y005439D01*
X016830Y005394D01*
X017010Y005394D01*
X017055Y005439D01*
X017055Y005529D01*
X017010Y005574D01*
X016830Y005574D01*
X016785Y005280D02*
X017055Y005100D01*
X017055Y005280D02*
X016785Y005100D01*
X016785Y004985D02*
X016785Y004805D01*
X016785Y004895D02*
X017055Y004895D01*
X017055Y004574D02*
X016965Y004484D01*
X016965Y004529D02*
X016965Y004394D01*
X017055Y004394D02*
X016785Y004394D01*
X016785Y004529D01*
X016830Y004574D01*
X016920Y004574D01*
X016965Y004529D01*
X016785Y004280D02*
X016785Y004100D01*
X016785Y004190D02*
X017055Y004190D01*
X017010Y003985D02*
X016830Y003985D01*
X016785Y003940D01*
X016785Y003805D01*
X017055Y003805D01*
X017055Y003940D01*
X017010Y003985D01*
X017180Y003680D02*
X018180Y003680D01*
X018180Y009680D01*
X017180Y009680D01*
X017180Y003680D01*
X017010Y007805D02*
X016830Y007805D01*
X016785Y007850D01*
X016785Y007940D01*
X016830Y007985D01*
X016785Y008100D02*
X016785Y008280D01*
X016785Y008190D02*
X017055Y008190D01*
X017010Y008394D02*
X017055Y008439D01*
X017055Y008529D01*
X017010Y008574D01*
X016965Y008574D01*
X016920Y008529D01*
X016920Y008439D01*
X016875Y008394D01*
X016830Y008394D01*
X016785Y008439D01*
X016785Y008529D01*
X016830Y008574D01*
X016830Y008805D02*
X017010Y008805D01*
X017055Y008850D01*
X017055Y008940D01*
X017010Y008985D01*
X016920Y008985D01*
X016920Y008895D01*
X016830Y008805D02*
X016785Y008850D01*
X016785Y008940D01*
X016830Y008985D01*
X016785Y009100D02*
X017055Y009280D01*
X016785Y009280D01*
X016785Y009394D02*
X016785Y009529D01*
X016830Y009574D01*
X017010Y009574D01*
X017055Y009529D01*
X017055Y009394D01*
X016785Y009394D01*
X016785Y009100D02*
X017055Y009100D01*
X017010Y007985D02*
X017055Y007940D01*
X017055Y007850D01*
X017010Y007805D01*
D16*
X012861Y006861D02*
X010499Y006861D01*
X010499Y004499D01*
X012861Y004499D01*
X012861Y006861D01*
X010991Y005680D02*
X010993Y005732D01*
X010999Y005784D01*
X011009Y005835D01*
X011022Y005885D01*
X011040Y005935D01*
X011061Y005982D01*
X011085Y006028D01*
X011114Y006072D01*
X011145Y006114D01*
X011179Y006153D01*
X011216Y006190D01*
X011256Y006223D01*
X011299Y006254D01*
X011343Y006281D01*
X011389Y006305D01*
X011438Y006325D01*
X011487Y006341D01*
X011538Y006354D01*
X011589Y006363D01*
X011641Y006368D01*
X011693Y006369D01*
X011745Y006366D01*
X011797Y006359D01*
X011848Y006348D01*
X011898Y006334D01*
X011947Y006315D01*
X011994Y006293D01*
X012039Y006268D01*
X012083Y006239D01*
X012124Y006207D01*
X012163Y006172D01*
X012198Y006134D01*
X012231Y006093D01*
X012261Y006051D01*
X012287Y006006D01*
X012310Y005959D01*
X012329Y005910D01*
X012345Y005860D01*
X012357Y005810D01*
X012365Y005758D01*
X012369Y005706D01*
X012369Y005654D01*
X012365Y005602D01*
X012357Y005550D01*
X012345Y005500D01*
X012329Y005450D01*
X012310Y005401D01*
X012287Y005354D01*
X012261Y005309D01*
X012231Y005267D01*
X012198Y005226D01*
X012163Y005188D01*
X012124Y005153D01*
X012083Y005121D01*
X012039Y005092D01*
X011994Y005067D01*
X011947Y005045D01*
X011898Y005026D01*
X011848Y005012D01*
X011797Y005001D01*
X011745Y004994D01*
X011693Y004991D01*
X011641Y004992D01*
X011589Y004997D01*
X011538Y005006D01*
X011487Y005019D01*
X011438Y005035D01*
X011389Y005055D01*
X011343Y005079D01*
X011299Y005106D01*
X011256Y005137D01*
X011216Y005170D01*
X011179Y005207D01*
X011145Y005246D01*
X011114Y005288D01*
X011085Y005332D01*
X011061Y005378D01*
X011040Y005425D01*
X011022Y005475D01*
X011009Y005525D01*
X010999Y005576D01*
X010993Y005628D01*
X010991Y005680D01*
D17*
X005421Y005328D03*
X005421Y005032D03*
D18*
X005421Y005180D03*
M02*
