G75*
G70*
%OFA0B0*%
%FSLAX24Y24*%
%IPPOS*%
%LPD*%
%AMOC8*
5,1,8,0,0,1.08239X$1,22.5*
%
%ADD10R,0.0394X0.1811*%
%ADD11R,0.0630X0.1339*%
%ADD12R,0.0500X0.0220*%
%ADD13R,0.0220X0.0500*%
%ADD14R,0.0945X0.0669*%
%ADD15R,0.0591X0.0512*%
%ADD16R,0.0630X0.0512*%
%ADD17R,0.0512X0.0610*%
%ADD18R,0.0315X0.0315*%
%ADD19R,0.0512X0.0630*%
%ADD20R,0.0512X0.0591*%
D10*
X002286Y003637D03*
X003074Y003637D03*
D11*
X001341Y001589D03*
X004019Y001589D03*
D12*
G36*
X007010Y005108D02*
X007362Y005460D01*
X007518Y005304D01*
X007166Y004952D01*
X007010Y005108D01*
G37*
G36*
X006788Y005330D02*
X007140Y005682D01*
X007296Y005526D01*
X006944Y005174D01*
X006788Y005330D01*
G37*
G36*
X006565Y005553D02*
X006917Y005905D01*
X007073Y005749D01*
X006721Y005397D01*
X006565Y005553D01*
G37*
G36*
X006342Y005776D02*
X006694Y006128D01*
X006850Y005972D01*
X006498Y005620D01*
X006342Y005776D01*
G37*
G36*
X006120Y005998D02*
X006472Y006350D01*
X006628Y006194D01*
X006276Y005842D01*
X006120Y005998D01*
G37*
G36*
X005897Y006221D02*
X006249Y006573D01*
X006405Y006417D01*
X006053Y006065D01*
X005897Y006221D01*
G37*
G36*
X005674Y006444D02*
X006026Y006796D01*
X006182Y006640D01*
X005830Y006288D01*
X005674Y006444D01*
G37*
G36*
X005452Y006666D02*
X005804Y007018D01*
X005960Y006862D01*
X005608Y006510D01*
X005452Y006666D01*
G37*
G36*
X008064Y008834D02*
X008416Y009186D01*
X008572Y009030D01*
X008220Y008678D01*
X008064Y008834D01*
G37*
G36*
X007842Y009056D02*
X008194Y009408D01*
X008350Y009252D01*
X007998Y008900D01*
X007842Y009056D01*
G37*
G36*
X008287Y008611D02*
X008639Y008963D01*
X008795Y008807D01*
X008443Y008455D01*
X008287Y008611D01*
G37*
G36*
X008510Y008388D02*
X008862Y008740D01*
X009018Y008584D01*
X008666Y008232D01*
X008510Y008388D01*
G37*
G36*
X008732Y008166D02*
X009084Y008518D01*
X009240Y008362D01*
X008888Y008010D01*
X008732Y008166D01*
G37*
G36*
X008955Y007943D02*
X009307Y008295D01*
X009463Y008139D01*
X009111Y007787D01*
X008955Y007943D01*
G37*
G36*
X009178Y007720D02*
X009530Y008072D01*
X009686Y007916D01*
X009334Y007564D01*
X009178Y007720D01*
G37*
G36*
X009400Y007498D02*
X009752Y007850D01*
X009908Y007694D01*
X009556Y007342D01*
X009400Y007498D01*
G37*
D13*
G36*
X009400Y006862D02*
X009556Y007018D01*
X009908Y006666D01*
X009752Y006510D01*
X009400Y006862D01*
G37*
G36*
X009178Y006640D02*
X009334Y006796D01*
X009686Y006444D01*
X009530Y006288D01*
X009178Y006640D01*
G37*
G36*
X008955Y006417D02*
X009111Y006573D01*
X009463Y006221D01*
X009307Y006065D01*
X008955Y006417D01*
G37*
G36*
X008732Y006194D02*
X008888Y006350D01*
X009240Y005998D01*
X009084Y005842D01*
X008732Y006194D01*
G37*
G36*
X008510Y005972D02*
X008666Y006128D01*
X009018Y005776D01*
X008862Y005620D01*
X008510Y005972D01*
G37*
G36*
X008287Y005749D02*
X008443Y005905D01*
X008795Y005553D01*
X008639Y005397D01*
X008287Y005749D01*
G37*
G36*
X008064Y005526D02*
X008220Y005682D01*
X008572Y005330D01*
X008416Y005174D01*
X008064Y005526D01*
G37*
G36*
X007842Y005304D02*
X007998Y005460D01*
X008350Y005108D01*
X008194Y004952D01*
X007842Y005304D01*
G37*
G36*
X005452Y007694D02*
X005608Y007850D01*
X005960Y007498D01*
X005804Y007342D01*
X005452Y007694D01*
G37*
G36*
X005674Y007916D02*
X005830Y008072D01*
X006182Y007720D01*
X006026Y007564D01*
X005674Y007916D01*
G37*
G36*
X005897Y008139D02*
X006053Y008295D01*
X006405Y007943D01*
X006249Y007787D01*
X005897Y008139D01*
G37*
G36*
X006120Y008362D02*
X006276Y008518D01*
X006628Y008166D01*
X006472Y008010D01*
X006120Y008362D01*
G37*
G36*
X006342Y008584D02*
X006498Y008740D01*
X006850Y008388D01*
X006694Y008232D01*
X006342Y008584D01*
G37*
G36*
X006565Y008807D02*
X006721Y008963D01*
X007073Y008611D01*
X006917Y008455D01*
X006565Y008807D01*
G37*
G36*
X006788Y009030D02*
X006944Y009186D01*
X007296Y008834D01*
X007140Y008678D01*
X006788Y009030D01*
G37*
G36*
X007010Y009252D02*
X007166Y009408D01*
X007518Y009056D01*
X007362Y008900D01*
X007010Y009252D01*
G37*
D14*
X014180Y008408D03*
X014180Y006952D03*
D15*
X015680Y007054D03*
X015680Y006306D03*
X015680Y005054D03*
X015680Y004306D03*
X015680Y008306D03*
X015680Y009054D03*
D16*
X014180Y005554D03*
X014180Y004806D03*
D17*
X012566Y004115D03*
X010794Y004115D03*
X010794Y007245D03*
X012566Y007245D03*
D18*
X005775Y005180D03*
X005185Y005180D03*
D19*
X005206Y004180D03*
X005954Y004180D03*
D20*
X005954Y003180D03*
X005206Y003180D03*
M02*
