G75*
G70*
%OFA0B0*%
%FSLAX24Y24*%
%IPPOS*%
%LPD*%
%AMOC8*
5,1,8,0,0,1.08239X$1,22.5*
%
%ADD10C,0.0020*%
%ADD11C,0.0080*%
%ADD12R,0.0059X0.0118*%
%ADD13R,0.0118X0.0118*%
%ADD14C,0.0100*%
%ADD15C,0.0050*%
D10*
X011760Y007310D02*
X011907Y007310D01*
X011907Y007090D01*
X011981Y007090D02*
X011981Y007237D01*
X011907Y007200D02*
X011834Y007200D01*
X011981Y007090D02*
X012091Y007090D01*
X012128Y007127D01*
X012128Y007237D01*
X012202Y007273D02*
X012349Y007127D01*
X012312Y007090D01*
X012239Y007090D01*
X012202Y007127D01*
X012202Y007273D01*
X012239Y007310D01*
X012312Y007310D01*
X012349Y007273D01*
X012349Y007127D01*
X012423Y007090D02*
X012570Y007090D01*
X012497Y007090D02*
X012497Y007310D01*
X012570Y007237D01*
X014090Y007427D02*
X014127Y007390D01*
X014090Y007427D02*
X014090Y007500D01*
X014127Y007537D01*
X014163Y007537D01*
X014200Y007500D01*
X014200Y007463D01*
X014200Y007500D02*
X014237Y007537D01*
X014273Y007537D01*
X014310Y007500D01*
X014310Y007427D01*
X014273Y007390D01*
X014273Y007611D02*
X014310Y007648D01*
X014310Y007721D01*
X014273Y007758D01*
X014237Y007758D01*
X014200Y007721D01*
X014163Y007758D01*
X014127Y007758D01*
X014090Y007721D01*
X014090Y007648D01*
X014127Y007611D01*
X014200Y007684D02*
X014200Y007721D01*
X014127Y007832D02*
X014273Y007832D01*
X014310Y007869D01*
X014310Y007942D01*
X014273Y007979D01*
X014127Y007832D01*
X014090Y007869D01*
X014090Y007942D01*
X014127Y007979D01*
X014273Y007979D01*
X015139Y007310D02*
X015286Y007310D01*
X015286Y007090D01*
X015360Y007127D02*
X015360Y007200D01*
X015397Y007237D01*
X015507Y007237D01*
X015507Y007017D01*
X015507Y007090D02*
X015397Y007090D01*
X015360Y007127D01*
X015286Y007200D02*
X015213Y007200D01*
X015581Y007127D02*
X015618Y007090D01*
X015691Y007090D01*
X015728Y007127D01*
X015581Y007273D01*
X015581Y007127D01*
X015581Y007273D02*
X015618Y007310D01*
X015691Y007310D01*
X015728Y007273D01*
X015728Y007127D01*
X015802Y007273D02*
X015949Y007127D01*
X015949Y007090D01*
X016060Y007090D02*
X016060Y007310D01*
X016170Y007200D01*
X016023Y007200D01*
X015949Y007310D02*
X015802Y007310D01*
X015802Y007273D01*
X016550Y007517D02*
X016770Y007517D01*
X016697Y007590D01*
X016770Y007664D01*
X016550Y007664D01*
X016550Y007738D02*
X016550Y007811D01*
X016550Y007774D02*
X016770Y007774D01*
X016770Y007738D02*
X016770Y007811D01*
X016733Y007885D02*
X016587Y007885D01*
X016550Y007922D01*
X016550Y007995D01*
X016587Y008032D01*
X016587Y008106D02*
X016550Y008143D01*
X016550Y008216D01*
X016587Y008253D01*
X016660Y008253D01*
X016697Y008216D01*
X016697Y008179D01*
X016660Y008106D01*
X016770Y008106D01*
X016770Y008253D01*
X016733Y008327D02*
X016770Y008364D01*
X016770Y008437D01*
X016733Y008474D01*
X016697Y008474D01*
X016550Y008327D01*
X016550Y008474D01*
X016587Y008548D02*
X016733Y008695D01*
X016587Y008695D01*
X016550Y008658D01*
X016550Y008585D01*
X016587Y008548D01*
X016733Y008548D01*
X016770Y008585D01*
X016770Y008658D01*
X016733Y008695D01*
X016770Y008769D02*
X016660Y008769D01*
X016697Y008842D01*
X016697Y008879D01*
X016660Y008916D01*
X016587Y008916D01*
X016550Y008879D01*
X016550Y008806D01*
X016587Y008769D01*
X016770Y008769D02*
X016770Y008916D01*
X016733Y008032D02*
X016770Y007995D01*
X016770Y007922D01*
X016733Y007885D01*
X014210Y006563D02*
X014210Y006490D01*
X014173Y006453D01*
X014173Y006379D02*
X014027Y006379D01*
X013990Y006342D01*
X013990Y006232D01*
X014210Y006232D01*
X014210Y006342D01*
X014173Y006379D01*
X014210Y006563D02*
X014173Y006600D01*
X014137Y006600D01*
X013990Y006453D01*
X013990Y006600D01*
X013990Y006158D02*
X013990Y006011D01*
X014210Y006011D01*
X014210Y006158D01*
X014100Y006084D02*
X014100Y006011D01*
X013990Y005937D02*
X013990Y005790D01*
X014210Y005790D01*
X014270Y004616D02*
X014270Y004469D01*
X014050Y004469D01*
X014050Y004395D02*
X014197Y004395D01*
X014160Y004469D02*
X014160Y004542D01*
X014050Y004395D02*
X014050Y004285D01*
X014087Y004248D01*
X014197Y004248D01*
X014233Y004174D02*
X014087Y004027D01*
X014050Y004027D01*
X014050Y003953D02*
X014050Y003917D01*
X014087Y003917D01*
X014087Y003953D01*
X014050Y003953D01*
X014050Y003806D02*
X014270Y003806D01*
X014160Y003696D01*
X014160Y003842D01*
X014270Y004027D02*
X014270Y004174D01*
X014233Y004174D01*
X015150Y004310D02*
X015297Y004310D01*
X015297Y004090D01*
X015371Y004090D02*
X015371Y004237D01*
X015297Y004200D02*
X015223Y004200D01*
X015371Y004090D02*
X015481Y004090D01*
X015518Y004127D01*
X015518Y004237D01*
X015592Y004273D02*
X015739Y004127D01*
X015739Y004090D01*
X015812Y004090D02*
X015849Y004090D01*
X015849Y004127D01*
X015812Y004127D01*
X015812Y004090D01*
X015960Y004090D02*
X015960Y004310D01*
X016070Y004200D01*
X015923Y004200D01*
X015739Y004310D02*
X015592Y004310D01*
X015592Y004273D01*
X016550Y004322D02*
X016770Y004322D01*
X016697Y004395D01*
X016770Y004469D01*
X016550Y004469D01*
X016587Y004543D02*
X016550Y004580D01*
X016550Y004653D01*
X016587Y004690D01*
X016623Y004764D02*
X016623Y004874D01*
X016660Y004911D01*
X016733Y004911D01*
X016770Y004874D01*
X016770Y004764D01*
X016550Y004764D01*
X016733Y004690D02*
X016770Y004653D01*
X016770Y004580D01*
X016733Y004543D01*
X016587Y004543D01*
X016587Y004985D02*
X016550Y004985D01*
X016587Y004985D02*
X016733Y005132D01*
X016770Y005132D01*
X016770Y004985D01*
X016733Y005206D02*
X016770Y005243D01*
X016770Y005316D01*
X016733Y005353D01*
X016697Y005353D01*
X016660Y005316D01*
X016623Y005353D01*
X016587Y005353D01*
X016550Y005316D01*
X016550Y005243D01*
X016587Y005206D01*
X016660Y005279D02*
X016660Y005316D01*
X016623Y005427D02*
X016660Y005464D01*
X016660Y005537D01*
X016623Y005574D01*
X016587Y005574D01*
X016550Y005537D01*
X016550Y005464D01*
X016587Y005427D01*
X016623Y005427D01*
X016660Y005464D02*
X016697Y005427D01*
X016733Y005427D01*
X016770Y005464D01*
X016770Y005537D01*
X016733Y005574D01*
X016697Y005574D01*
X016660Y005537D01*
X016587Y005648D02*
X016550Y005685D01*
X016550Y005758D01*
X016587Y005795D01*
X016623Y005795D01*
X016660Y005758D01*
X016660Y005721D01*
X016660Y005758D02*
X016697Y005795D01*
X016733Y005795D01*
X016770Y005758D01*
X016770Y005685D01*
X016733Y005648D01*
X016697Y005869D02*
X016770Y005942D01*
X016550Y005942D01*
X016550Y005869D02*
X016550Y006016D01*
X012810Y004211D02*
X012590Y004211D01*
X012663Y004211D02*
X012737Y004321D01*
X012663Y004211D02*
X012590Y004321D01*
X012590Y004137D02*
X012590Y003990D01*
X012737Y004137D01*
X012773Y004137D01*
X012810Y004100D01*
X012810Y004027D01*
X012773Y003990D01*
X012797Y010090D02*
X012797Y010310D01*
X012650Y010310D01*
X012723Y010200D02*
X012797Y010200D01*
X012871Y010237D02*
X012871Y010090D01*
X012981Y010090D01*
X013018Y010127D01*
X013018Y010237D01*
X013165Y010310D02*
X013165Y010090D01*
X013092Y010090D02*
X013239Y010090D01*
X013312Y010090D02*
X013349Y010090D01*
X013349Y010127D01*
X013312Y010127D01*
X013312Y010090D01*
X013423Y010127D02*
X013460Y010090D01*
X013533Y010090D01*
X013570Y010127D01*
X013423Y010273D01*
X013423Y010127D01*
X013423Y010273D02*
X013460Y010310D01*
X013533Y010310D01*
X013570Y010273D01*
X013570Y010127D01*
X013239Y010237D02*
X013165Y010310D01*
D11*
X010330Y002530D02*
X004030Y002530D01*
X005133Y004361D02*
X006393Y004361D01*
X006393Y006330D01*
X005133Y006330D01*
X005133Y004361D01*
X006786Y003711D02*
X008164Y003711D01*
X008164Y005089D01*
X006786Y005089D01*
X006786Y003711D01*
X004030Y008830D02*
X010330Y008830D01*
X015361Y008286D02*
X015361Y008074D01*
X015511Y007620D02*
X015849Y007620D01*
X015849Y008740D02*
X015511Y008740D01*
X015511Y005740D02*
X015849Y005740D01*
X015361Y005286D02*
X015361Y005074D01*
X015511Y004620D02*
X015849Y004620D01*
D12*
X013828Y006121D03*
X013532Y006121D03*
D13*
X013680Y006121D03*
D14*
X004294Y010499D02*
X004294Y011208D01*
X004294Y010499D02*
X003389Y010499D01*
X001971Y010499D02*
X001066Y010499D01*
X001066Y011208D01*
X001066Y012152D02*
X001066Y012428D01*
X004294Y012428D02*
X004294Y012152D01*
D15*
X005630Y006207D02*
X005630Y006119D01*
X005630Y006163D02*
X005895Y006163D01*
X005895Y006119D01*
X005763Y006006D02*
X005630Y006006D01*
X005630Y005873D01*
X005674Y005829D01*
X005719Y005873D01*
X005719Y006006D01*
X005763Y006006D02*
X005807Y005962D01*
X005807Y005873D01*
X005807Y005724D02*
X005807Y005636D01*
X005851Y005680D02*
X005674Y005680D01*
X005630Y005724D01*
X005674Y005522D02*
X005719Y005478D01*
X005719Y005390D01*
X005763Y005346D01*
X005807Y005390D01*
X005807Y005522D01*
X005674Y005522D02*
X005630Y005478D01*
X005630Y005346D01*
X005630Y005232D02*
X005630Y005100D01*
X005674Y005056D01*
X005807Y005056D01*
X005807Y004947D02*
X005807Y004902D01*
X005719Y004814D01*
X005807Y004814D02*
X005630Y004814D01*
X005674Y004701D02*
X005630Y004656D01*
X005630Y004568D01*
X005674Y004524D01*
X005851Y004524D01*
X005895Y004568D01*
X005895Y004656D01*
X005851Y004701D01*
X005542Y005144D02*
X005542Y005188D01*
X005586Y005232D01*
X005807Y005232D01*
X007257Y004509D02*
X007302Y004553D01*
X007390Y004553D01*
X007434Y004509D01*
X007434Y004332D01*
X007390Y004288D01*
X007302Y004288D01*
X007257Y004332D01*
X007539Y004288D02*
X007627Y004288D01*
X007583Y004288D02*
X007583Y004553D01*
X007627Y004553D02*
X007539Y004553D01*
M02*
